<?xml version="1.0" encoding="UTF-8" standalone="no"?>
<!DOCTYPE svg PUBLIC "-//W3C//DTD SVG 1.1//EN" "http://www.w3.org/Graphics/SVG/1.1/DTD/svg11.dtd">
<svg version="1.1" xmlns="http://www.w3.org/2000/svg" xmlns:xlink="http://www.w3.org/1999/xlink" preserveAspectRatio="xMidYMid meet" viewBox="0 0 229 134" width="229" height="134"><defs><path d="M44.97 87.85L88.52 130.4L131.26 87.85L131.26 2.74L88.52 66.99L44.97 2.74L44.97 87.85Z" id="a1I7ra4s4d"></path><path d="M174.98 2.74L133.96 57.66L133.96 2.74L174.98 2.74Z" id="dwWCzcFum"></path><path d="M133.96 130.18L133.96 61.18" id="eP1xv2TEc"></path><path d="M177.45 2.9L133.74 61.62" id="c166t9w1Av"></path><path d="M177.51 2.33L177.51 98.08L190.44 98.08L190.44 130L177.51 130L133.96 130" id="bgThjPGmg"></path><path d="M192.55 130.4L192.55 97.4" id="e1f1EiiVm"></path><path d="" id="a8veSK8gi"></path><path d="M192.55 130.4L227.23 113.68L227.23 81.45L192.55 97.36" id="b3eMFlyGTn"></path><path d="M0 3.58L0 130.85L41.93 131.25L41.93 3.58L0 3.58Z" id="c7J4qjvrj"></path><path d="M190.44 130.4L190.44 97.4L177.45 97.4L177.45 2.74L133.96 61.62L133.96 130.4L190.44 130.4Z" id="i6sZI6WWf"></path></defs><g><g><g><use xlink:href="#a1I7ra4s4d" opacity="1" fill="#ffffff" fill-opacity="1"></use><g><use xlink:href="#a1I7ra4s4d" opacity="1" fill-opacity="0" stroke="#ffffff" stroke-width="1" stroke-opacity="1"></use></g></g><g><use xlink:href="#dwWCzcFum" opacity="1" fill="#ffffff" fill-opacity="1"></use><g><use xlink:href="#dwWCzcFum" opacity="1" fill-opacity="0" stroke="#ffffff" stroke-width="1" stroke-opacity="1"></use></g></g><g><use xlink:href="#eP1xv2TEc" opacity="1" fill="#ffffff" fill-opacity="1"></use><g><use xlink:href="#eP1xv2TEc" opacity="1" fill-opacity="0" stroke="#171616" stroke-width="1" stroke-opacity="1"></use></g></g><g><use xlink:href="#c166t9w1Av" opacity="1" fill="#ffffff" fill-opacity="1"></use><g><use xlink:href="#c166t9w1Av" opacity="1" fill-opacity="0" stroke="#171616" stroke-width="1" stroke-opacity="1"></use></g></g><g><use xlink:href="#bgThjPGmg" opacity="1" fill="#ffffff" fill-opacity="1"></use><g><use xlink:href="#bgThjPGmg" opacity="1" fill-opacity="0" stroke="#0f0f0f" stroke-width="1" stroke-opacity="1"></use></g></g><g><g><use xlink:href="#e1f1EiiVm" opacity="1" fill-opacity="0" stroke="#111010" stroke-width="1" stroke-opacity="1"></use></g></g><g><g><use xlink:href="#a8veSK8gi" opacity="1" fill-opacity="0" stroke="#000000" stroke-width="1" stroke-opacity="1"></use></g></g><g><use xlink:href="#b3eMFlyGTn" opacity="1" fill="#ffffff" fill-opacity="1"></use><g><use xlink:href="#b3eMFlyGTn" opacity="1" fill-opacity="0" stroke="#ffffff" stroke-width="1" stroke-opacity="1"></use></g></g><g><use xlink:href="#c7J4qjvrj" opacity="1" fill="#ffffff" fill-opacity="1"></use><g><use xlink:href="#c7J4qjvrj" opacity="1" fill-opacity="0" stroke="#ffffff" stroke-width="1" stroke-opacity="1"></use></g></g><g><use xlink:href="#i6sZI6WWf" opacity="1" fill="#ffffff" fill-opacity="1"></use><g><use xlink:href="#i6sZI6WWf" opacity="1" fill-opacity="0" stroke="#f6f6f6" stroke-width="1" stroke-opacity="1"></use></g></g></g></g></svg>
